<svg width="221" height="120" viewBox="0 0 221 120" fill="none" xmlns="http://www.w3.org/2000/svg">
<rect width="221" height="120" fill="#FF491F"/>
<path d="M202.377 70.8803C201.754 71.1717 201.183 71.273 200.586 71.121L199.722 70.9943C198.159 70.7283 196.914 70.931 195.962 71.6783C196.012 71.4123 196.025 71.1083 196.025 70.8043C196.025 69.9304 195.695 68.9677 195.06 67.9798L194.539 67.2451C194.221 66.7385 194.043 66.1938 194.043 65.5225C194.043 64.6232 194.374 63.7746 195.06 63.0146C195.708 62.204 196.47 61.824 197.321 61.824C197.829 61.824 198.274 61.938 198.68 62.1913C199.48 62.7233 199.874 63.5212 199.874 64.5345C199.874 65.0412 199.798 65.5352 199.62 66.0798C200.395 65.3072 201.246 64.9145 202.161 64.9145C202.86 64.9145 203.444 65.1425 203.901 65.6365C204.384 66.1305 204.625 66.7258 204.625 67.4224C204.625 69.0311 203.889 70.1837 202.39 70.8803H202.377Z" fill="white"/>
<path d="M109.553 60.7473C109.757 60.7853 109.973 60.7473 110.189 60.7853C119.246 62.5079 119.983 59.2147 120.771 57.8721C122.612 54.8195 120.072 50.2217 116.578 48.575C112.577 46.7131 108.715 45.8771 105.272 45.9405C100.471 46.0418 96.5071 47.8657 94.1824 51.1083C91.9085 54.2495 91.2606 60.7853 100.839 65.9025C100.28 65.6112 103.557 67.6377 104.51 68.5497C105.526 69.5377 104.193 69.411 102.274 68.6004C101.512 68.2837 96.1133 64.3065 91.7053 65.2818C87.9451 66.1051 86.8145 70.2597 88.631 73.3882C91.4131 78.1887 97.1677 80.342 102.719 81.1273C104.129 81.3173 105.552 81.406 106.886 81.368C107.14 81.368 107.381 81.368 107.623 81.368C113.923 81.0513 118.052 78.6067 119.602 74.5155C122.155 67.9544 113.339 62.7612 109.541 60.76" fill="white"/>
<path d="M79.8022 41.3174C80.7803 37.7708 80.5517 34.2749 79.0908 30.931C78.6335 29.8924 77.9602 28.8791 77.1599 28.0811C76.0293 26.9792 74.3779 26.2952 73.0821 27.3085C72.1167 28.0558 71.2401 29.5884 71.202 30.817C71.0877 34.5029 72.2564 37.9355 74.2381 41.0387C76.1944 44.1419 77.7315 44.2053 79.8022 41.3174Z" fill="white"/>
<path d="M90.3079 30.3483C89.2154 29.3857 87.6529 29.981 86.8907 31.0703C84.8963 33.8442 83.1178 36.7955 81.2758 39.6834C81.2758 39.6834 80.0436 42.4066 81.784 43.4452C81.784 43.4452 82.9273 44.5092 84.909 43.2172C88.4913 40.9247 90.6128 37.6188 91.4258 33.5402C91.6163 32.5776 91.0574 31.0197 90.2952 30.3483H90.3079Z" fill="white"/>
<path d="M78.3541 57.4161C76.2072 57.8088 74.8861 59.0754 74.7972 61.6973C74.6193 66.3205 74.3525 70.9184 74.2509 75.5289C74.1874 78.8854 75.7245 80.6967 78.8114 81.2287C81.0472 81.6213 83.3592 79.9494 83.7911 77.1248L83.6133 60.8614C83.283 58.2521 80.8312 56.9728 78.3668 57.4161H78.3541Z" fill="white"/>
<path d="M80.1707 55.5415C83.2703 55.1742 85.6204 52.3749 85.252 49.4744C84.8709 46.6245 82.0127 44.5219 79.002 44.9019C76.004 45.2692 73.7047 47.9924 74.0096 50.817C74.3399 53.6416 77.2362 55.8708 80.1707 55.5415Z" fill="white"/>
<path d="M77.6939 50.6397C77.8209 50.855 77.986 51.0703 78.1766 51.273C78.3925 51.463 78.5958 51.615 78.8753 51.7417C79.1039 51.8683 79.3961 51.9316 79.6629 51.9696C79.9423 51.9696 80.2091 51.9063 80.4759 51.7797C80.7427 51.6277 80.9332 51.4123 81.0602 51.1083C81.1873 50.8297 81.2127 50.437 81.1365 49.943C81.0094 49.1704 80.6918 48.6638 80.2345 48.3344C79.7772 48.0304 79.2945 47.9165 78.7863 47.9798C78.5958 47.9798 78.3925 48.0558 78.1766 48.1698C77.8209 48.3598 77.5795 48.6764 77.4271 49.0691C77.3001 49.4997 77.3763 50.0064 77.6939 50.6397Z" fill="#EA0029"/>
<path d="M130.311 78.8854C122.016 72.7676 121.279 59.5313 128.177 51.9316C131.454 48.3344 136.104 46.5611 140.855 46.7131C143.916 46.8144 147.003 47.7011 149.62 49.3604C150.789 50.1077 151.881 51.0196 152.809 52.0583C155.934 55.6428 155.006 63.4705 151.284 65.6111C149.95 66.3711 146.609 68.6257 141.617 68.2204C137.463 67.9164 136.866 65.3832 138.352 65.3832C148.299 65.3832 144.247 61.5453 143.929 61.3173C143.497 61.0006 142.443 60.532 140.715 60.8993C135.926 61.9379 136.32 70.171 141.325 70.4243C144.78 70.6016 145.25 69.9177 147.333 69.0817C152.377 67.0424 155.896 71.9189 153.266 76.4028C150.929 80.3927 146.114 82.1026 141.249 82.1026C137.196 82.1026 133.08 80.912 130.324 78.8854" fill="white"/>
<path d="M39.8885 46.6245C35.7091 44.8766 42.5689 36.1748 46.2529 41.0514C48.8444 44.5092 44.9699 47.0678 41.667 46.9792C41.0318 46.9538 40.4348 46.8525 39.8885 46.6118M39.0374 23.3439C14.4056 25.7632 21.0114 48.9931 19.7664 66.2065C18.585 82.1406 43.1533 80.95 39.4439 67.8658C37.513 61.064 41.9083 63.0653 42.4419 68.6384C43.7122 81.862 58.1813 82.4066 62.5005 76.5928C67.8613 69.3984 58.9689 65.7885 57.5589 60.0127C57.2794 58.8728 57.5589 57.7328 58.8292 56.7702C72.9172 45.8772 64.2535 23.7999 43.1406 23.2046C41.8194 23.1793 40.4602 23.2046 39.0374 23.3439Z" fill="white"/>
<path d="M169.018 44.8259C152.44 47.7898 158.182 63.1666 158.258 74.9209C158.334 85.7885 173.502 84.0659 171.698 75.0096C168.23 57.4922 172.156 55.1996 175.331 57.3528C180.336 60.7474 170.568 76.4915 180.387 80.4434C184.224 81.976 189.038 80.3927 192.748 78.7081C194.742 77.7961 196.775 74.9589 195.237 72.793C193.954 70.9944 192.201 72.793 190.41 73.097C185.71 73.9456 186.802 68.8411 186.917 66.5865C187.018 64.5853 188.174 60.2407 188.2 57.0868C188.2 54.8702 187.158 52.5143 185.901 50.7284C182.712 46.2319 177.173 44.2179 171.774 44.5093C170.872 44.5346 169.958 44.6359 169.005 44.8259" fill="url(#paint0_radial_943_5622)"/>
<mask id="mask0_943_5622" style="mask-type:luminance" maskUnits="userSpaceOnUse" x="157" y="44" width="39" height="39">
<path d="M169.018 44.8259C152.44 47.7898 158.182 63.1666 158.258 74.9209C158.334 85.7885 173.502 84.0659 171.698 75.0096C168.23 57.4922 172.156 55.1996 175.331 57.3528C180.336 60.7474 170.568 76.4915 180.387 80.4434C184.224 81.976 189.038 80.3927 192.748 78.7081C194.742 77.7961 196.775 74.9589 195.237 72.793C193.954 70.9944 192.201 72.793 190.41 73.097C185.71 73.9456 186.802 68.8411 186.917 66.5865C187.018 64.5853 188.174 60.2407 188.2 57.0868C188.2 54.8702 187.158 52.5143 185.901 50.7284C182.712 46.2319 177.173 44.2179 171.774 44.5093C170.872 44.5346 169.958 44.6359 169.005 44.8259" fill="white"/>
</mask>
<g mask="url(#mask0_943_5622)">
<path d="M155.069 43.3819L197.028 43.1033L197.308 85.3832L155.387 85.6745L155.069 43.3819Z" fill="white"/>
</g>
<path d="M141.541 38.4927C141.541 39.164 141.325 39.7214 140.867 40.1647C140.423 40.608 139.864 40.8233 139.191 40.8233H138.416C137.006 40.8233 135.824 40.342 134.859 39.392C133.906 38.4294 133.423 37.2514 133.423 35.8455V26.4345C133.423 25.7632 133.652 25.2058 134.097 24.7625C134.541 24.3192 135.1 24.1039 135.773 24.1039C136.447 24.1039 137.018 24.3319 137.463 24.7625C137.908 25.2058 138.136 25.7632 138.136 26.4345V34.0849C138.136 34.2749 138.238 34.3762 138.428 34.3762H139.203C139.877 34.3762 140.436 34.6042 140.88 35.0475C141.325 35.4908 141.553 36.0608 141.553 36.7321C141.553 37.0488 141.503 37.3401 141.388 37.6188C141.49 37.8974 141.553 38.2014 141.553 38.5054L141.541 38.4927ZM140.385 36.7195C140.385 36.3648 140.283 36.0735 140.054 35.8455C139.839 35.6175 139.546 35.5035 139.191 35.5035H138.416C138.009 35.5035 137.679 35.3642 137.399 35.0855C137.12 34.8069 136.98 34.4649 136.98 34.0595V26.4091C136.98 26.0545 136.866 25.7632 136.65 25.5478C136.421 25.3325 136.129 25.2185 135.773 25.2185C135.418 25.2185 135.126 25.3325 134.91 25.5478C134.694 25.7632 134.579 26.0545 134.579 26.4091V34.0469C134.579 35.1488 134.948 36.0608 135.672 36.7828C136.396 37.5048 137.311 37.8721 138.416 37.8721H139.191C139.546 37.8721 139.839 37.7581 140.054 37.5428C140.27 37.3274 140.385 37.0361 140.385 36.6815V36.7195Z" fill="white"/>
<path d="M150.789 35.8582C150.789 37.2515 150.306 38.4294 149.354 39.3921C148.401 40.3547 147.219 40.836 145.822 40.836C144.425 40.836 143.231 40.3547 142.265 39.4047C141.312 38.4421 140.83 37.2642 140.83 35.8582V30.1077C140.83 29.4364 141.046 28.8664 141.503 28.4231C141.947 27.9671 142.506 27.7518 143.18 27.7518C143.853 27.7518 144.425 27.9798 144.869 28.4231C145.314 28.8791 145.543 29.4364 145.543 30.1204V34.1103C145.543 34.3003 145.644 34.4016 145.835 34.4016C146.013 34.4016 146.101 34.3003 146.101 34.1103V30.0951C146.101 29.4237 146.33 28.8538 146.775 28.4104C147.219 27.9671 147.791 27.7391 148.464 27.7391C149.138 27.7391 149.697 27.9545 150.141 28.4104C150.586 28.8538 150.814 29.4111 150.814 30.0824V35.8582H150.789ZM149.633 34.0849V30.0824C149.633 29.7277 149.519 29.4364 149.303 29.2211C149.087 29.0058 148.795 28.8918 148.439 28.8918C148.083 28.8918 147.804 29.0058 147.575 29.2211C147.359 29.4364 147.245 29.7277 147.245 30.0824V34.0976C147.245 34.5029 147.105 34.8449 146.838 35.1236C146.571 35.4022 146.229 35.5415 145.822 35.5415C145.415 35.5415 145.085 35.4022 144.806 35.1236C144.526 34.8449 144.387 34.5029 144.387 34.0976V30.1077C144.387 29.7531 144.272 29.4617 144.056 29.2338C143.828 29.0058 143.535 28.8918 143.18 28.8918C142.824 28.8918 142.532 29.0058 142.316 29.2338C142.1 29.4617 141.986 29.7531 141.986 30.1077V34.0849C141.986 35.1869 142.354 36.0989 143.078 36.8335C143.802 37.5681 144.717 37.9228 145.822 37.9228C146.927 37.9228 147.816 37.5555 148.553 36.8208C149.277 36.0862 149.646 35.1742 149.646 34.0849H149.633Z" fill="white"/>
<path d="M160.189 38.4928C160.189 39.1641 159.961 39.7214 159.516 40.1648C159.072 40.6081 158.513 40.8361 157.839 40.8361C157.166 40.8361 156.62 40.6081 156.162 40.1648C155.705 39.7214 155.476 39.1641 155.476 38.5055V38.0495C155.476 37.8595 155.388 37.7708 155.21 37.7708C155.019 37.7708 154.918 37.8595 154.918 38.0495V38.5055C154.918 39.1768 154.689 39.7341 154.244 40.1774C153.8 40.6207 153.228 40.8361 152.555 40.8361C151.881 40.8361 151.322 40.6081 150.878 40.1648C150.433 39.7214 150.205 39.1641 150.205 38.4928V38.0368C150.205 37.7835 150.23 37.5175 150.255 37.2642C150.217 37.0995 150.205 36.9222 150.205 36.7322V36.2762C150.205 35.5669 150.332 34.9083 150.598 34.2876C150.344 33.6796 150.205 33.0337 150.205 32.3243V31.8684C150.205 31.6784 150.23 31.501 150.255 31.3364C150.217 31.0831 150.205 30.8171 150.205 30.5511V30.0951C150.205 29.4238 150.433 28.8665 150.878 28.4231C151.322 27.9798 151.881 27.7518 152.555 27.7518C153.279 27.7518 153.85 27.9672 154.282 28.3851C154.702 28.8031 154.918 29.3731 154.918 30.1078V30.5637C154.918 30.7411 155.019 30.8297 155.21 30.8297C155.388 30.8297 155.476 30.7411 155.476 30.5637V30.1078C155.476 29.4238 155.705 28.8665 156.15 28.4231C156.594 27.9798 157.166 27.7518 157.839 27.7518C158.513 27.7518 159.072 27.9672 159.516 28.4231C159.961 28.8665 160.189 29.4238 160.189 30.0951V30.5511C160.189 30.8044 160.164 31.0704 160.139 31.3364C160.177 31.501 160.189 31.6784 160.189 31.8684V32.3243C160.189 33.0337 160.062 33.6923 159.796 34.2876C160.05 34.9083 160.189 35.5669 160.189 36.2762V36.7322C160.189 36.9222 160.164 37.0995 160.139 37.2642C160.177 37.5302 160.189 37.7835 160.189 38.0368V38.4928ZM159.033 36.7195V36.2635C159.033 35.1109 158.602 34.161 157.738 33.3883C158.602 32.6283 159.033 31.6784 159.033 30.5257V30.0698C159.033 29.7151 158.919 29.4238 158.703 29.2084C158.487 28.9931 158.195 28.8791 157.839 28.8791C157.484 28.8791 157.191 28.9931 156.975 29.2084C156.747 29.4238 156.645 29.7151 156.645 30.0698V30.5384C156.645 30.9311 156.505 31.2604 156.226 31.539C155.947 31.8177 155.616 31.957 155.222 31.957C154.829 31.957 154.486 31.8177 154.206 31.5517C153.927 31.2857 153.787 30.9437 153.787 30.5384V30.0698C153.787 29.2718 153.393 28.8791 152.58 28.8791C152.224 28.8791 151.932 28.9931 151.716 29.2084C151.5 29.4238 151.386 29.7151 151.386 30.0698V30.5257C151.386 31.6784 151.818 32.6283 152.682 33.3883C151.818 34.161 151.386 35.1109 151.386 36.2635V36.7195C151.386 37.0742 151.5 37.3655 151.716 37.5808C151.932 37.7962 152.224 37.9102 152.58 37.9102C152.936 37.9102 153.228 37.7962 153.457 37.5808C153.685 37.3655 153.787 37.0742 153.787 36.7195V36.2635C153.787 35.8582 153.927 35.5162 154.206 35.2502C154.486 34.9716 154.829 34.8323 155.222 34.8323C155.616 34.8323 155.947 34.9716 156.226 35.2629C156.505 35.5416 156.645 35.8836 156.645 36.2762V36.7322C156.645 37.0742 156.76 37.3528 156.988 37.5808C157.217 37.8088 157.509 37.9228 157.852 37.9228C158.195 37.9228 158.5 37.8088 158.716 37.5935C158.932 37.3782 159.046 37.0869 159.046 36.7322L159.033 36.7195Z" fill="white"/>
<path d="M169.539 35.8582C169.539 37.2515 169.056 38.4294 168.104 39.3921C167.151 40.3547 165.969 40.836 164.572 40.836C163.175 40.836 161.981 40.3547 161.015 39.4047C160.062 38.4421 159.58 37.2642 159.58 35.8582V30.1077C159.58 29.4364 159.808 28.8664 160.253 28.4231C160.697 27.9671 161.256 27.7518 161.93 27.7518C162.603 27.7518 163.175 27.9798 163.619 28.4231C164.064 28.8791 164.293 29.4364 164.293 30.1204V34.1103C164.293 34.3003 164.394 34.4016 164.585 34.4016C164.763 34.4016 164.851 34.3003 164.851 34.1103V30.0951C164.851 29.4237 165.08 28.8538 165.525 28.4104C165.969 27.9671 166.541 27.7391 167.214 27.7391C167.888 27.7391 168.447 27.9545 168.891 28.4104C169.336 28.8538 169.564 29.4111 169.564 30.0824V35.8582H169.539ZM168.383 34.0849V30.0824C168.383 29.7277 168.269 29.4364 168.053 29.2211C167.837 29.0058 167.545 28.8918 167.189 28.8918C166.833 28.8918 166.541 29.0058 166.325 29.2211C166.109 29.4364 165.995 29.7277 165.995 30.0824V34.0976C165.995 34.5029 165.855 34.8449 165.588 35.1236C165.309 35.4022 164.979 35.5415 164.572 35.5415C164.165 35.5415 163.835 35.4022 163.556 35.1236C163.276 34.8449 163.137 34.5029 163.137 34.0976V30.1077C163.137 29.7531 163.022 29.4617 162.806 29.2338C162.578 29.0058 162.285 28.8918 161.93 28.8918C161.574 28.8918 161.282 29.0058 161.066 29.2338C160.85 29.4617 160.736 29.7531 160.736 30.1077V34.0849C160.736 35.1869 161.104 36.0989 161.828 36.8335C162.552 37.5681 163.467 37.9228 164.572 37.9228C165.677 37.9228 166.566 37.5555 167.303 36.8208C168.027 36.0862 168.396 35.1742 168.396 34.0849H168.383Z" fill="white"/>
<path d="M186.625 42.3939C186.625 43.0652 186.409 43.6225 185.952 44.0659C185.507 44.5092 184.935 44.7245 184.262 44.7245C182.839 44.7245 181.645 44.2432 180.667 43.3059C179.689 42.3559 179.193 41.1653 179.193 39.7593V34.4775C179.193 34.3002 179.117 34.2115 178.952 34.2115V38.4927C178.952 39.164 178.723 39.7213 178.279 40.1647C177.834 40.608 177.263 40.8233 176.589 40.8233C175.916 40.8233 175.357 40.5953 174.912 40.1647C174.468 39.7213 174.239 39.164 174.239 38.4927V34.4775C174.239 34.3002 174.138 34.2115 173.96 34.2115C173.782 34.2115 173.668 34.3002 173.668 34.4775V38.4927C173.668 39.164 173.452 39.7213 173.007 40.1647C172.562 40.608 172.003 40.8233 171.33 40.8233C170.657 40.8233 170.085 40.5953 169.641 40.152C169.196 39.7087 168.967 39.1514 168.967 38.4801V32.6789C168.967 31.2856 169.45 30.1077 170.415 29.145C171.381 28.1824 172.562 27.7137 173.96 27.7137C174.862 27.7137 175.687 27.9417 176.45 28.3851C177.199 27.9417 178.025 27.7137 178.939 27.7137C180.337 27.7137 181.518 28.1951 182.471 29.145C183.424 30.1077 183.906 31.273 183.906 32.6789V37.9607C183.906 38.1507 184.008 38.2394 184.186 38.2394C184.885 38.2394 185.469 38.4547 185.926 38.898C186.396 39.3414 186.612 39.8987 186.612 40.5953C186.612 40.8993 186.561 41.1906 186.46 41.482C186.561 41.7479 186.612 42.0519 186.612 42.3686L186.625 42.3939ZM185.469 40.6206C185.469 40.266 185.355 39.9747 185.126 39.7593C184.91 39.5314 184.605 39.4174 184.262 39.4174H184.186C183.792 39.4174 183.449 39.278 183.17 38.9994C182.89 38.7207 182.75 38.3787 182.75 37.9734V32.6916C182.75 31.6023 182.382 30.703 181.658 29.9683C180.934 29.2464 180.019 28.879 178.927 28.879C177.987 28.879 177.148 29.183 176.437 29.8037C175.713 29.183 174.887 28.879 173.947 28.879C172.855 28.879 171.94 29.2464 171.216 29.9683C170.479 30.703 170.111 31.6023 170.111 32.6916V36.7194C170.111 37.0741 170.225 37.3654 170.454 37.5807C170.67 37.7961 170.974 37.9101 171.317 37.9101C171.66 37.9101 171.965 37.7961 172.181 37.5807C172.397 37.3654 172.512 37.0741 172.512 36.7194V32.7042C172.512 32.2989 172.651 31.9696 172.931 31.6909C173.21 31.425 173.553 31.2856 173.947 31.2856C174.341 31.2856 174.671 31.425 174.963 31.7036C175.243 31.9823 175.382 32.3116 175.382 32.7042V36.7194C175.382 37.0741 175.497 37.3654 175.713 37.5807C175.929 37.7961 176.221 37.9101 176.577 37.9101C176.932 37.9101 177.224 37.7961 177.44 37.5807C177.669 37.3654 177.783 37.0741 177.783 36.7194V31.8303C178.063 31.463 178.444 31.2856 178.927 31.2856C179.321 31.2856 179.651 31.425 179.93 31.7036C180.21 31.9823 180.349 32.3116 180.349 32.7042V37.9734C180.349 39.0627 180.718 39.962 181.442 40.6966C182.179 41.4313 183.093 41.7986 184.173 41.7986H184.249C184.605 41.7986 184.897 41.6846 185.113 41.4693C185.342 41.254 185.456 40.9626 185.456 40.608L185.469 40.6206Z" fill="white"/>
<path d="M188.289 28.3471C188.289 28.7904 188.2 29.2084 188.022 29.5884V38.4928C188.022 39.1641 187.794 39.7214 187.336 40.1647C186.879 40.608 186.32 40.8233 185.659 40.8233C184.999 40.8233 184.427 40.5954 183.983 40.1647C183.538 39.7214 183.309 39.1641 183.309 38.4928V29.6011C183.119 29.2084 183.03 28.7904 183.03 28.3471C183.03 28.0431 183.081 27.7391 183.182 27.4605C183.081 27.1818 183.03 26.8778 183.03 26.5738C183.03 25.8518 183.284 25.2439 183.805 24.7245C184.313 24.2052 184.935 23.9519 185.659 23.9519C186.383 23.9519 187.006 24.2052 187.514 24.7245C188.035 25.2439 188.289 25.8518 188.289 26.5738C188.289 26.8778 188.238 27.1818 188.137 27.4605C188.238 27.7391 188.289 28.0431 188.289 28.3471ZM187.133 26.5738C187.133 26.1685 186.981 25.8265 186.701 25.5352C186.409 25.2439 186.066 25.1045 185.659 25.1045C185.253 25.1045 184.91 25.2439 184.618 25.5352C184.326 25.8265 184.186 26.1685 184.186 26.5738C184.186 26.9791 184.338 27.3211 184.618 27.6124C184.91 27.9038 185.253 28.0431 185.659 28.0431C186.066 28.0431 186.409 27.8911 186.701 27.6124C186.993 27.3211 187.133 26.9791 187.133 26.5738ZM186.866 36.7195V30.0824C186.866 29.2971 186.472 28.8917 185.659 28.8917C185.304 28.8917 185.012 29.0057 184.796 29.2211C184.58 29.4364 184.465 29.7277 184.465 30.0824V36.7195C184.465 37.0741 184.58 37.3655 184.796 37.5808C185.012 37.7961 185.304 37.9101 185.659 37.9101C186.015 37.9101 186.307 37.7961 186.536 37.5808C186.752 37.3655 186.866 37.0741 186.866 36.7195Z" fill="white"/>
<defs>
<radialGradient id="paint0_radial_943_5622" cx="0" cy="0" r="1" gradientUnits="userSpaceOnUse" gradientTransform="translate(176.178 62.852) scale(19.0855 19.0298)">
<stop stop-color="#FAD09F"/>
<stop offset="0.22" stop-color="#F29B76"/>
<stop offset="0.48" stop-color="#E60013"/>
<stop offset="1" stop-color="#B70007"/>
</radialGradient>
</defs>
</svg>
